<svg xmlns="http://www.w3.org/2000/svg" viewBox="0 0 184 25" fill="#333333">
  <path d="M13.8 2.9c0-2-1.9-2.5-3.4-2.5v.3c.9 0 1.6.3 1.6 1 0 .4-.3 1-1.2 1-.7 0-2.2-.4-3.3-.8C6.2 1.4 5 1 4 1 2 1 .6 2.5.6 4.2c0 1.5 1.1 2 1.5 2.2l.1-.2c-.2-.2-.5-.4-.5-1 0-.4.4-1.1 1.4-1.1.9 0 2.1.4 3.7.9 1.4.4 2.9.7 3.7.8v3.1L9 10.2v.1l1.5 1.3v4.3c-.8.5-1.7.6-2.5.6-1.5 0-2.8-.4-3.9-1.6l4.1-2V6l-5 2.2C3.6 6.9 4.7 6 5.8 5.4l-.1-.3c-3 .8-5.7 3.6-5.7 7 0 4 3.3 7 7 7 4 0 6.6-3.2 6.6-6.5h-.2c-.6 1.3-1.5 2.5-2.6 3.1v-4.1l1.6-1.3v-.1l-1.6-1.3V5.8c1.5 0 3-1 3-2.9zm-8.7 11l-1.2.6c-.7-.9-1.1-2.1-1.1-3.8 0-.7 0-1.5.2-2.1l2.1-.9v6.2zm10.6 2.3l-1.3 1 .2.2.6-.5 2.2 2 3-2-.1-.2-.8.5-1-1V9.4l.8-.6 1.7 1.4v6.1c0 3.8-.8 4.4-2.5 5v.3c2.8.1 5.4-.8 5.4-5.7V9.3l.9-.7-.2-.2-.8.6-2.5-2.1L18.5 9V.8h-.2l-3.5 2.4v.2c.4.2 1 .4 1 1.5l-.1 11.3zM34 15.1L31.5 17 29 15v-1.2l4.7-3.2v-.1l-2.4-3.6-5.2 2.8v6.6l-1 .8.2.2.9-.7 3.4 2.5 4.5-3.6-.1-.4zm-5-1.7V8.5l.2-.1 2.2 3.5-2.4 1.5zM53.1 2c0-.3-.1-.6-.2-.9h-.2c-.3.8-.7 1.2-1.7 1.2-.9 0-1.5-.5-1.9-.9l-2.9 3.3.2.2 1-.9c.6.5 1.1.9 2.5 1v8.3L44 3.2c-.5-.8-1.2-1.9-2.6-1.9-1.6 0-3 1.4-2.8 3.6h.3c.1-.6.4-1.3 1.1-1.3.5 0 1 .5 1.3 1v3.3c-1.8 0-3 .8-3 2.3 0 .8.4 2 1.6 2.3v-.2c-.2-.2-.3-.4-.3-.7 0-.5.4-.9 1.1-.9h.5v4.2c-2.1 0-3.8 1.2-3.8 3.2 0 1.9 1.6 2.8 3.4 2.7v-.2c-1.1-.1-1.6-.6-1.6-1.3 0-.9.6-1.3 1.4-1.3.8 0 1.5.5 2 1.1l2.9-3.2-.2-.2-.7.8c-1.1-1-1.7-1.3-3-1.5V5l8 14h.6V5c1.5-.1 2.9-1.3 2.9-3zm7.3 13.1L57.9 17l-2.5-2v-1.2l4.7-3.2v-.1l-2.4-3.6-5.2 2.8v6.6l-1 .8.2.2.9-.7 3.4 2.5 4.5-3.6-.1-.4zm-5-1.7V8.5l.2-.1 2.2 3.5-2.4 1.5zM76.7 8l-.7.5-1.9-1.6-2.2 2 .9.9v7.5l-2.4-1.5V9.6l.8-.5-2.3-2.2-2.2 2 .9.9V17l-.3.2-2.1-1.5v-6c0-1.4-.7-1.8-1.5-2.3-.7-.5-1.1-.8-1.1-1.5 0-.6.6-.9.9-1.1v-.2c-.8 0-2.9.8-2.9 2.7 0 1 .5 1.4 1 1.9s1 .9 1 1.8v5.8l-1.1.8.2.2 1-.8 2.3 2 2.5-1.7 2.8 1.7 5.3-3.1V9.2l1.3-1-.2-.2zm18.6-5.5l-1 .9-2.2-2-3.3 2.4V1.6h-.3l.1 16.2c-.3 0-1.2-.2-1.9-.4l-.2-13.5c0-1-.7-2.4-2.5-2.4s-3 1.4-3 2.8h.3c.1-.6.4-1.1 1-1.1s1.1.4 1.1 1.7v3.9c-1.8.1-2.9 1.1-2.9 2.4 0 .8.4 2 1.6 2V13c-.4-.2-.5-.5-.5-.7 0-.6.5-.8 1.3-.8h.4v6.2c-1.5.5-2.1 1.6-2.1 2.8 0 1.7 1.3 2.9 3.3 2.9 1.4 0 2.6-.2 3.8-.5 1-.2 2.3-.5 2.9-.5.8 0 1.1.4 1.1.9 0 .7-.3 1-.7 1.1v.2c1.6-.3 2.6-1.3 2.6-2.8s-1.5-2.4-3.1-2.4c-.8 0-2.5.3-3.7.5-1.4.3-2.8.5-3.2.5-.7 0-1.5-.3-1.5-1.3 0-.8.7-1.5 2.4-1.5.9 0 2 .1 3.1.4 1.2.3 2.3.6 3.3.6 1.5 0 2.8-.5 2.8-2.6V3.7l1.2-1-.2-.2zm-4.1 6.1c-.3.3-.7.6-1.2.6s-1-.3-1.2-.6V4.2l1-.7 1.4 1.3v3.8zm0 3c-.2-.2-.7-.5-1.2-.5s-1 .3-1.2.5V9c.2.2.7.5 1.2.5s1-.3 1.2-.5v2.6zm0 4.7c0 .8-.5 1.6-1.6 1.6v-3.8c.9 0 1.6.7 1.6 1.4v.8zm13.2-11.6l-2.9-2.9-4.5 3.5V1.7h-.3v7.5l-1.1-.8-.2.2 1.1.8v5.4l-1.5-1.4-.2.2 5.8 5.3 4.5-3.5-.1-.4-2.9 2.1V7.2l2.2-.8v-.2l-2.2-.8V1.7h-.3zm-4.5 0v4.9l-.2.1-2.3-3.3 2.5-1.7zm0 14.8l-2.5-1.7 2.3-3.3.2.1v4.9zm5.3-9.1l-2.2.8v-.3l2.2-.8v.3zm0 7.5l-2.2.8v-.3l2.2-.8v.3zm7-5.7l-3.8 2.6V7.8h-1.1v-.2h1.1V4.8h-8v2.8h1.1v.2h-1.1v7.8h8V13h-1.1v-.2h1.1v-2.8l3.8 2.6c.5.4.8.7.8 1.3 0 .6-.4 1-.8 1.4h.3c1.3-1.1 1.8-2.1 1.8-3.2 0-1.1-.6-2-1.9-3.1zM127 14.2c-.2.2-.5.4-.8.4-.4 0-.9-.2-1.4-.4-.6-.3-1.3-.6-2.1-.6-.9 0-1.7.4-2.3 1.1V13c.4-.5 1.3-1 2.2-1 .9 0 1.5.4 2.1.6.6.3 1.2.4 1.6.4.8 0 1.5-.4 2.1-1.1v1.7c-.5.7-1.3 1.1-2.1 1.1-.6 0-1.2-.1-1.6-.4-.6-.3-1.2-.6-2.1-.6-.9 0-1.7.3-2.2.8v1.7c.5-.5 1.3-.8 2.2-.8.9 0 1.5.3 2.1.6.6.3 1.2.4 1.6.4.8 0 1.5-.3 2.1-.9v1.7c-.5.6-1.3.9-2.1.9-.6 0-1.2-.1-1.6-.4-.6-.3-1.2-.6-2.1-.6-.9 0-1.7.3-2.2.8v1.7c.5-.5 1.3-.8 2.2-.8.9 0 1.5.3 2.1.6.6.3 1.2.4 1.6.4.8 0 1.5-.3 2.1-.9V20h.3V9.2l1.3-1-.2-.2-1.1.8v4.4zm-6.7-1.1v-1.7l.3-.2 2.2 1.7-.2.2-2.3-1.7zm0 3v-1.5l.3-.2 2.2 1.5-.2.2-2.3-1.5zm0 3v-1.5l.3-.2 2.2 1.5-.2.2-2.3-1.5zm6.2-10.9c-.5.5-1.3.8-2.1.8-.9 0-1.5-.4-2.1-.7-.6-.3-1.2-.5-1.6-.5-.8 0-1.5.4-2.1 1v-1.8c.6-.6 1.3-1 2.1-1 .6 0 1.2.2 1.6.5.6.3 1.2.7 2.1.7.9 0 1.7-.4 2.2-.9v1.9h-.1zm-10.8 1v-1.8c-.5-.4-1.3-.8-1.9-.8-.9 0-1.5.3-2.1.7-.6.3-1.1.5-1.6.5-.8 0-1.5-.4-2.1-1v1.8c.5.6 1.3 1 2.1 1 .6 0 1.1-.2 1.6-.5.6-.3 1.2-.7 2.1-.7.9 0 1.7.4 2.2.9h-.3zm0 3v-1.8c-.5-.4-1.3-.8-1.9-.8-.9 0-1.5.3-2.1.7-.6.3-1.1.5-1.6.5-.8 0-1.5-.4-2.1-1v1.8c.5.6 1.3 1 2.1 1 .6 0 1.1-.2 1.6-.5.6-.3 1.2-.7 2.1-.7.9 0 1.7.4 2.2.9h-.3zm0 3v-1.8c-.5-.4-1.3-.8-1.9-.8-.9 0-1.5.3-2.1.7-.6.3-1.1.5-1.6.5-.8 0-1.5-.4-2.1-1v1.8c.5.6 1.3 1 2.1 1 .6 0 1.1-.2 1.6-.5.6-.3 1.2-.7 2.1-.7.9 0 1.7.4 2.2.9h-.3zm0 3v-1.8c-.5-.4-1.3-.8-1.9-.8-.9 0-1.5.3-2.1.7-.6.3-1.1.5-1.6.5-.8 0-1.5-.4-2.1-1v1.8c.5.6 1.3 1 2.1 1 .6 0 1.1-.2 1.6-.5.6-.3 1.2-.7 2.1-.7.9 0 1.7.4 2.2.9h-.3zm-6-10.9c.5.6 1.3 1 2.1 1 .6 0 1.1-.2 1.6-.5.6-.3 1.2-.7 2.1-.7.9 0 1.7.4 2.2.9V5.8c-.5-.6-1.3-.9-2.2-.9-.9 0-1.5.3-2.1.7-.6.3-1.1.5-1.6.5-.8 0-1.5-.4-2.1-1v1.6zm-8.6 10v-1.8c-.5-.4-1.3-.8-1.9-.8-.9 0-1.5.3-2.1.7-.6.3-1.1.5-1.6.5-.8 0-1.5-.4-2.1-1v1.8c.5.6 1.3 1 2.1 1 .6 0 1.1-.2 1.6-.5.6-.3 1.2-.7 2.1-.7.9 0 1.7.4 2.2.9h-.3zm2.2 1.9v-1.8c-.5-.4-1.3-.8-1.9-.8-.9 0-1.5.3-2.1.7-.6.3-1.1.5-1.6.5-.8 0-1.5-.4-2.1-1v1.8c.5.6 1.3 1 2.1 1 .6 0 1.1-.2 1.6-.5.6-.3 1.2-.7 2.1-.7.9 0 1.7.4 2.2.9h-.3zm0-3v-1.8c-.5-.4-1.3-.8-1.9-.8-.9 0-1.5.3-2.1.7-.6.3-1.1.5-1.6.5-.8 0-1.5-.4-2.1-1v1.8c.5.6 1.3 1 2.1 1 .6 0 1.1-.2 1.6-.5.6-.3 1.2-.7 2.1-.7.9 0 1.7.4 2.2.9h-.3zm0-3v-1.8c-.5-.4-1.3-.8-1.9-.8-.9 0-1.5.3-2.1.7-.6.3-1.1.5-1.6.5-.8 0-1.5-.4-2.1-1v1.8c.5.6 1.3 1 2.1 1 .6 0 1.1-.2 1.6-.5.6-.3 1.2-.7 2.1-.7.9 0 1.7.4 2.2.9h-.3zm0-3v-1.8c-.5-.4-1.3-.8-1.9-.8-.9 0-1.5.3-2.1.7-.6.3-1.1.5-1.6.5-.8 0-1.5-.4-2.1-1v1.8c.5.6 1.3 1 2.1 1 .6 0 1.1-.2 1.6-.5.6-.3 1.2-.7 2.1-.7.9 0 1.7.4 2.2.9h-.3zm0-3v-1.8c-.5-.4-1.3-.8-1.9-.8-.9 0-1.5.3-2.1.7-.6.3-1.1.5-1.6.5-.8 0-1.5-.4-2.1-1v1.8c.5.6 1.3 1 2.1 1 .6 0 1.1-.2 1.6-.5.6-.3 1.2-.7 2.1-.7.9 0 1.7.4 2.2.9h-.3zm-8.7-3h.3c.4-.5 1.2-.9 2-.9.9 0 1.5.3 2.1.7.6.3 1.1.5 1.7.5.8 0 1.6-.4 2.2-1.1V5.7c-.6.7-1.4 1.1-2.2 1.1-.6 0-1.1-.2-1.7-.5-.6-.3-1.2-.7-2.1-.7-.8 0-1.6.3-2 .9h-.3V5.2zm0 2.8h.3c.4-.5 1.2-.9 2-.9.9 0 1.5.3 2.1.7.6.3 1.1.5 1.7.5.8 0 1.6-.4 2.2-1.1V6c-.6.7-1.4 1.1-2.2 1.1-.6 0-1.1-.2-1.7-.5-.6-.3-1.2-.7-2.1-.7-.8 0-1.6.3-2 .9h-.3V8zm8.7 3c.5.5 1.3.8 2.2.8.9 0 1.5-.3 2.1-.6.6-.3 1.1-.5 1.6-.5.8 0 1.5.3 2.1.9V9.9c-.5-.5-1.3-.9-2.1-.9-.6 0-1.1.2-1.6.5-.6.3-1.2.6-2.1.6-.9 0-1.7-.3-2.2-.8v1.7zm-3.6-2.2v.3h-1.4v-.3h1.4zm-.7 3c.4 0 .9-.2 1.2-.5v-.3c-.3.5-.7.9-1.2.9-.6 0-1.1-.4-1.1-1.2 0-.7.5-1.3 1.1-1.3.5 0 .9.3 1.2.8v-.4c-.3-.3-.7-.6-1.2-.6-.9 0-1.5.7-1.5 1.5 0 .9.6 1.5 1.5 1.5v-.4zm6-9.5v-2h-5v2h5zm6.5 0v-2h-5v2h5zm-11.5 6h6v-2h-6v2zm-5 3h6v-2h-6v2zm5 3h6v-2h-6v2zm10-6h6v-2h-6v2zm0 3h6v-2h-6v2zm0 3h6v-2h-6v2z"/>
</svg>