<svg xmlns="http://www.w3.org/2000/svg" viewBox="0 0 100 30" fill="#333333">
  <path d="M0 0.5h8.4l8.8 20.5L26.1 0.5h8.4v28.9h-5.3V7.8l-9.1 21.6h-5.6L5.3 7.8v21.6H0V0.5z"/>
  <path d="M42.4 0.5c9.3 0 14.1 6.1 14.1 14.5s-4.8 14.5-14.1 14.5-14.1-6.1-14.1-14.5S33.1 0.5 42.4 0.5zm0 23.7c5.6 0 8.4-3.9 8.4-9.3s-2.8-9.3-8.4-9.3-8.4 3.9-8.4 9.3 2.8 9.3 8.4 9.3z"/>
  <path d="M66.7 29.4c-4.5 0-7.7-1.5-9.9-3.7l3.3-3.9c1.7 1.5 3.9 2.6 6.8 2.6 3.2 0 4.9-1.5 4.9-3.6 0-2-1.7-2.7-4.5-3.9l-3.9-1.6c-3.2-1.3-5.9-3.7-5.9-7.9 0-4.8 4.3-8.3 10.1-8.3 4 0 6.9 1.3 9.2 3.6l-3.1 3.7c-1.9-1.6-3.9-2.3-6.3-2.3-2.7 0-4.3 1.3-4.3 3.2 0 2.1 2 2.7 4.5 3.7l3.9 1.6c3.7 1.5 6 3.7 6 7.9 0 4.8-3.9 8.9-10.8 8.9z"/>
  <path d="M91.6 29.4c-4.5 0-7.7-1.5-9.9-3.7l3.3-3.9c1.7 1.5 3.9 2.6 6.8 2.6 3.2 0 4.9-1.5 4.9-3.6 0-2-1.7-2.7-4.5-3.9l-3.9-1.6c-3.2-1.3-5.9-3.7-5.9-7.9 0-4.8 4.3-8.3 10.1-8.3 4 0 6.9 1.3 9.2 3.6l-3.1 3.7c-1.9-1.6-3.9-2.3-6.3-2.3-2.7 0-4.3 1.3-4.3 3.2 0 2.1 2 2.7 4.5 3.7l3.9 1.6c3.7 1.5 6 3.7 6 7.9 0 4.8-3.9 8.9-10.8 8.9z"/>
</svg>